<svg xmlns="http://www.w3.org/2000/svg" xmlns:xlink="http://www.w3.org/1999/xlink" width="240" zoomAndPan="magnify" viewBox="0 0 180 44.999999" height="60" preserveAspectRatio="xMidYMid meet" version="1.0"><defs><g/></defs><g fill="#ffffff" fill-opacity="1"><g transform="translate(6.232975, 34.499998)"><g><path d="M 14.40625 -13.390625 C 14.269531 -13.210938 14.132812 -13.070312 14 -12.96875 C 13.863281 -12.875 13.675781 -12.828125 13.4375 -12.828125 C 13.207031 -12.828125 12.988281 -12.890625 12.78125 -13.015625 C 12.582031 -13.148438 12.347656 -13.289062 12.078125 -13.4375 C 11.816406 -13.59375 11.5 -13.734375 11.125 -13.859375 C 10.757812 -13.984375 10.304688 -14.046875 9.765625 -14.046875 C 9.066406 -14.046875 8.460938 -13.921875 7.953125 -13.671875 C 7.453125 -13.421875 7.035156 -13.0625 6.703125 -12.59375 C 6.367188 -12.125 6.117188 -11.554688 5.953125 -10.890625 C 5.796875 -10.222656 5.71875 -9.472656 5.71875 -8.640625 C 5.71875 -6.878906 6.070312 -5.53125 6.78125 -4.59375 C 7.488281 -3.65625 8.453125 -3.1875 9.671875 -3.1875 C 10.097656 -3.1875 10.460938 -3.222656 10.765625 -3.296875 C 11.078125 -3.367188 11.347656 -3.460938 11.578125 -3.578125 C 11.804688 -3.691406 12.003906 -3.8125 12.171875 -3.9375 C 12.335938 -4.070312 12.492188 -4.195312 12.640625 -4.3125 C 12.796875 -4.425781 12.945312 -4.519531 13.09375 -4.59375 C 13.238281 -4.664062 13.410156 -4.703125 13.609375 -4.703125 C 13.960938 -4.703125 14.238281 -4.566406 14.4375 -4.296875 L 15.765625 -2.625 C 15.265625 -2.050781 14.738281 -1.578125 14.1875 -1.203125 C 13.632812 -0.835938 13.054688 -0.546875 12.453125 -0.328125 C 11.859375 -0.109375 11.253906 0.0390625 10.640625 0.125 C 10.023438 0.207031 9.421875 0.25 8.828125 0.25 C 7.765625 0.25 6.757812 0.0507812 5.8125 -0.34375 C 4.863281 -0.738281 4.03125 -1.3125 3.3125 -2.0625 C 2.601562 -2.820312 2.039062 -3.753906 1.625 -4.859375 C 1.207031 -5.960938 1 -7.222656 1 -8.640625 C 1 -9.898438 1.179688 -11.066406 1.546875 -12.140625 C 1.921875 -13.222656 2.460938 -14.160156 3.171875 -14.953125 C 3.890625 -15.742188 4.773438 -16.363281 5.828125 -16.8125 C 6.878906 -17.269531 8.09375 -17.5 9.46875 -17.5 C 10.789062 -17.5 11.945312 -17.285156 12.9375 -16.859375 C 13.925781 -16.429688 14.816406 -15.816406 15.609375 -15.015625 Z M 14.40625 -13.390625 "/></g></g></g><g fill="#ffffff" fill-opacity="1"><g transform="translate(22.409106, 34.499998)"><g><path d="M 9.671875 -17.5 C 10.960938 -17.5 12.140625 -17.289062 13.203125 -16.875 C 14.265625 -16.46875 15.171875 -15.878906 15.921875 -15.109375 C 16.679688 -14.347656 17.265625 -13.421875 17.671875 -12.328125 C 18.085938 -11.234375 18.296875 -10.003906 18.296875 -8.640625 C 18.296875 -7.265625 18.085938 -6.03125 17.671875 -4.9375 C 17.265625 -3.84375 16.679688 -2.910156 15.921875 -2.140625 C 15.171875 -1.367188 14.265625 -0.773438 13.203125 -0.359375 C 12.140625 0.046875 10.960938 0.25 9.671875 0.25 C 8.367188 0.25 7.1875 0.046875 6.125 -0.359375 C 5.0625 -0.773438 4.148438 -1.367188 3.390625 -2.140625 C 2.628906 -2.910156 2.039062 -3.84375 1.625 -4.9375 C 1.207031 -6.03125 1 -7.265625 1 -8.640625 C 1 -10.003906 1.207031 -11.234375 1.625 -12.328125 C 2.039062 -13.421875 2.628906 -14.347656 3.390625 -15.109375 C 4.148438 -15.878906 5.0625 -16.46875 6.125 -16.875 C 7.1875 -17.289062 8.367188 -17.5 9.671875 -17.5 Z M 9.671875 -3.203125 C 10.984375 -3.203125 11.957031 -3.65625 12.59375 -4.5625 C 13.226562 -5.476562 13.546875 -6.832031 13.546875 -8.625 C 13.546875 -10.40625 13.226562 -11.75 12.59375 -12.65625 C 11.957031 -13.5625 10.984375 -14.015625 9.671875 -14.015625 C 8.328125 -14.015625 7.335938 -13.5625 6.703125 -12.65625 C 6.066406 -11.75 5.75 -10.40625 5.75 -8.625 C 5.75 -6.832031 6.066406 -5.476562 6.703125 -4.5625 C 7.335938 -3.65625 8.328125 -3.203125 9.671875 -3.203125 Z M 9.671875 -3.203125 "/></g></g></g><g fill="#ffffff" fill-opacity="1"><g transform="translate(41.710172, 34.499998)"><g><path d="M 12.546875 -12.75 C 12.109375 -13.25 11.632812 -13.597656 11.125 -13.796875 C 10.625 -14.003906 10.09375 -14.109375 9.53125 -14.109375 C 8.96875 -14.109375 8.457031 -14 8 -13.78125 C 7.539062 -13.570312 7.144531 -13.238281 6.8125 -12.78125 C 6.488281 -12.332031 6.238281 -11.757812 6.0625 -11.0625 C 5.882812 -10.363281 5.796875 -9.53125 5.796875 -8.5625 C 5.796875 -7.601562 5.867188 -6.785156 6.015625 -6.109375 C 6.160156 -5.441406 6.367188 -4.898438 6.640625 -4.484375 C 6.910156 -4.078125 7.238281 -3.78125 7.625 -3.59375 C 8.019531 -3.414062 8.457031 -3.328125 8.9375 -3.328125 C 9.75 -3.328125 10.429688 -3.488281 10.984375 -3.8125 C 11.535156 -4.132812 12.054688 -4.59375 12.546875 -5.1875 Z M 17.15625 -24.921875 L 17.15625 0 L 14.328125 0 C 13.734375 0 13.351562 -0.265625 13.1875 -0.796875 L 12.796875 -2.3125 C 12.453125 -1.925781 12.085938 -1.578125 11.703125 -1.265625 C 11.316406 -0.953125 10.898438 -0.679688 10.453125 -0.453125 C 10.015625 -0.222656 9.535156 -0.0507812 9.015625 0.0625 C 8.503906 0.1875 7.953125 0.25 7.359375 0.25 C 6.429688 0.25 5.582031 0.0546875 4.8125 -0.328125 C 4.039062 -0.722656 3.375 -1.296875 2.8125 -2.046875 C 2.25 -2.796875 1.8125 -3.71875 1.5 -4.8125 C 1.1875 -5.90625 1.03125 -7.15625 1.03125 -8.5625 C 1.03125 -9.84375 1.207031 -11.03125 1.5625 -12.125 C 1.914062 -13.226562 2.414062 -14.179688 3.0625 -14.984375 C 3.707031 -15.785156 4.484375 -16.414062 5.390625 -16.875 C 6.304688 -17.332031 7.320312 -17.5625 8.4375 -17.5625 C 9.375 -17.5625 10.160156 -17.421875 10.796875 -17.140625 C 11.441406 -16.867188 12.023438 -16.492188 12.546875 -16.015625 L 12.546875 -24.921875 Z M 17.15625 -24.921875 "/></g></g></g><g fill="#ffffff" fill-opacity="1"><g transform="translate(60.793995, 34.499998)"><g><path d="M 12.828125 -10.640625 C 12.828125 -11.117188 12.765625 -11.578125 12.640625 -12.015625 C 12.515625 -12.453125 12.3125 -12.835938 12.03125 -13.171875 C 11.75 -13.503906 11.394531 -13.765625 10.96875 -13.953125 C 10.550781 -14.148438 10.046875 -14.25 9.453125 -14.25 C 8.347656 -14.25 7.484375 -13.9375 6.859375 -13.3125 C 6.242188 -12.695312 5.835938 -11.804688 5.640625 -10.640625 Z M 5.578125 -7.90625 C 5.722656 -6.289062 6.179688 -5.109375 6.953125 -4.359375 C 7.734375 -3.609375 8.75 -3.234375 10 -3.234375 C 10.632812 -3.234375 11.179688 -3.304688 11.640625 -3.453125 C 12.097656 -3.609375 12.503906 -3.78125 12.859375 -3.96875 C 13.210938 -4.15625 13.53125 -4.320312 13.8125 -4.46875 C 14.09375 -4.625 14.375 -4.703125 14.65625 -4.703125 C 15.007812 -4.703125 15.285156 -4.566406 15.484375 -4.296875 L 16.828125 -2.625 C 16.335938 -2.050781 15.796875 -1.578125 15.203125 -1.203125 C 14.617188 -0.835938 14.007812 -0.546875 13.375 -0.328125 C 12.738281 -0.109375 12.097656 0.0390625 11.453125 0.125 C 10.804688 0.207031 10.179688 0.25 9.578125 0.25 C 8.367188 0.25 7.242188 0.0507812 6.203125 -0.34375 C 5.160156 -0.738281 4.253906 -1.320312 3.484375 -2.09375 C 2.710938 -2.875 2.101562 -3.835938 1.65625 -4.984375 C 1.207031 -6.128906 0.984375 -7.457031 0.984375 -8.96875 C 0.984375 -10.144531 1.175781 -11.25 1.5625 -12.28125 C 1.945312 -13.320312 2.5 -14.222656 3.21875 -14.984375 C 3.945312 -15.753906 4.828125 -16.363281 5.859375 -16.8125 C 6.898438 -17.269531 8.070312 -17.5 9.375 -17.5 C 10.476562 -17.5 11.492188 -17.320312 12.421875 -16.96875 C 13.347656 -16.613281 14.148438 -16.101562 14.828125 -15.4375 C 15.503906 -14.769531 16.03125 -13.945312 16.40625 -12.96875 C 16.78125 -12 16.96875 -10.890625 16.96875 -9.640625 C 16.96875 -9.296875 16.945312 -9.007812 16.90625 -8.78125 C 16.875 -8.5625 16.816406 -8.382812 16.734375 -8.25 C 16.660156 -8.125 16.554688 -8.035156 16.421875 -7.984375 C 16.285156 -7.929688 16.113281 -7.90625 15.90625 -7.90625 Z M 5.578125 -7.90625 "/></g></g></g><g fill="#ffffff" fill-opacity="1"><g transform="translate(78.708061, 34.499998)"><g><path d="M 6.234375 -14.390625 C 6.773438 -15.367188 7.398438 -16.140625 8.109375 -16.703125 C 8.828125 -17.273438 9.664062 -17.5625 10.625 -17.5625 C 11.40625 -17.5625 12.039062 -17.378906 12.53125 -17.015625 L 12.234375 -13.609375 C 12.179688 -13.378906 12.09375 -13.222656 11.96875 -13.140625 C 11.851562 -13.054688 11.695312 -13.015625 11.5 -13.015625 C 11.320312 -13.015625 11.066406 -13.039062 10.734375 -13.09375 C 10.398438 -13.144531 10.085938 -13.171875 9.796875 -13.171875 C 9.367188 -13.171875 8.988281 -13.109375 8.65625 -12.984375 C 8.332031 -12.859375 8.039062 -12.679688 7.78125 -12.453125 C 7.53125 -12.234375 7.300781 -11.960938 7.09375 -11.640625 C 6.882812 -11.316406 6.691406 -10.953125 6.515625 -10.546875 L 6.515625 0 L 1.90625 0 L 1.90625 -17.234375 L 4.625 -17.234375 C 5.09375 -17.234375 5.414062 -17.148438 5.59375 -16.984375 C 5.769531 -16.816406 5.898438 -16.523438 5.984375 -16.109375 Z M 6.234375 -14.390625 "/></g></g></g><g fill="#ffffff" fill-opacity="1"><g transform="translate(91.308062, 34.499998)"><g><path d="M 12.609375 -13.6875 C 12.492188 -13.5 12.367188 -13.363281 12.234375 -13.28125 C 12.109375 -13.195312 11.9375 -13.15625 11.71875 -13.15625 C 11.488281 -13.15625 11.253906 -13.207031 11.015625 -13.3125 C 10.785156 -13.425781 10.523438 -13.546875 10.234375 -13.671875 C 9.953125 -13.804688 9.625 -13.925781 9.25 -14.03125 C 8.875 -14.144531 8.441406 -14.203125 7.953125 -14.203125 C 7.203125 -14.203125 6.617188 -14.046875 6.203125 -13.734375 C 5.796875 -13.429688 5.59375 -13.03125 5.59375 -12.53125 C 5.59375 -12.1875 5.707031 -11.894531 5.9375 -11.65625 C 6.175781 -11.425781 6.488281 -11.222656 6.875 -11.046875 C 7.257812 -10.878906 7.695312 -10.71875 8.1875 -10.5625 C 8.675781 -10.414062 9.179688 -10.253906 9.703125 -10.078125 C 10.222656 -9.898438 10.726562 -9.691406 11.21875 -9.453125 C 11.707031 -9.222656 12.140625 -8.929688 12.515625 -8.578125 C 12.898438 -8.234375 13.207031 -7.8125 13.4375 -7.3125 C 13.675781 -6.8125 13.796875 -6.210938 13.796875 -5.515625 C 13.796875 -4.679688 13.644531 -3.910156 13.34375 -3.203125 C 13.039062 -2.492188 12.59375 -1.882812 12 -1.375 C 11.40625 -0.863281 10.664062 -0.460938 9.78125 -0.171875 C 8.90625 0.117188 7.894531 0.265625 6.75 0.265625 C 6.15625 0.265625 5.566406 0.210938 4.984375 0.109375 C 4.410156 0.00390625 3.863281 -0.144531 3.34375 -0.34375 C 2.820312 -0.539062 2.332031 -0.765625 1.875 -1.015625 C 1.414062 -1.273438 1.019531 -1.554688 0.6875 -1.859375 L 1.75 -3.578125 C 1.875 -3.773438 2.023438 -3.929688 2.203125 -4.046875 C 2.390625 -4.160156 2.628906 -4.21875 2.921875 -4.21875 C 3.203125 -4.21875 3.457031 -4.144531 3.6875 -4 C 3.925781 -3.863281 4.1875 -3.710938 4.46875 -3.546875 C 4.757812 -3.390625 5.101562 -3.238281 5.5 -3.09375 C 5.894531 -2.957031 6.390625 -2.890625 6.984375 -2.890625 C 7.429688 -2.890625 7.816406 -2.9375 8.140625 -3.03125 C 8.460938 -3.132812 8.722656 -3.269531 8.921875 -3.4375 C 9.117188 -3.613281 9.265625 -3.8125 9.359375 -4.03125 C 9.460938 -4.25 9.515625 -4.476562 9.515625 -4.71875 C 9.515625 -5.09375 9.394531 -5.398438 9.15625 -5.640625 C 8.914062 -5.878906 8.601562 -6.085938 8.21875 -6.265625 C 7.832031 -6.441406 7.390625 -6.601562 6.890625 -6.75 C 6.390625 -6.894531 5.878906 -7.054688 5.359375 -7.234375 C 4.835938 -7.410156 4.328125 -7.617188 3.828125 -7.859375 C 3.335938 -8.109375 2.898438 -8.421875 2.515625 -8.796875 C 2.128906 -9.171875 1.816406 -9.628906 1.578125 -10.171875 C 1.335938 -10.722656 1.21875 -11.390625 1.21875 -12.171875 C 1.21875 -12.878906 1.359375 -13.550781 1.640625 -14.1875 C 1.921875 -14.832031 2.335938 -15.398438 2.890625 -15.890625 C 3.441406 -16.378906 4.132812 -16.769531 4.96875 -17.0625 C 5.800781 -17.351562 6.765625 -17.5 7.859375 -17.5 C 9.078125 -17.5 10.1875 -17.296875 11.1875 -16.890625 C 12.195312 -16.492188 13.023438 -15.972656 13.671875 -15.328125 Z M 12.609375 -13.6875 "/></g></g></g><g fill="#ffffff" fill-opacity="1"><g transform="translate(106.097193, 34.499998)"><g><path d="M 6.546875 -24.921875 L 6.546875 0 L 1.9375 0 L 1.9375 -24.921875 Z M 6.546875 -24.921875 "/></g></g></g><g fill="#ffffff" fill-opacity="1"><g transform="translate(114.586316, 34.499998)"><g><path d="M 10.90625 -7.203125 C 9.78125 -7.148438 8.84375 -7.050781 8.09375 -6.90625 C 7.351562 -6.769531 6.765625 -6.585938 6.328125 -6.359375 C 5.890625 -6.140625 5.578125 -5.890625 5.390625 -5.609375 C 5.203125 -5.328125 5.109375 -5.015625 5.109375 -4.671875 C 5.109375 -4.003906 5.296875 -3.53125 5.671875 -3.25 C 6.046875 -2.976562 6.566406 -2.84375 7.234375 -2.84375 C 8.003906 -2.84375 8.671875 -2.976562 9.234375 -3.25 C 9.796875 -3.519531 10.351562 -3.945312 10.90625 -4.53125 Z M 1.515625 -14.84375 C 2.535156 -15.75 3.65625 -16.425781 4.875 -16.875 C 6.101562 -17.332031 7.429688 -17.5625 8.859375 -17.5625 C 9.878906 -17.5625 10.789062 -17.394531 11.59375 -17.0625 C 12.40625 -16.726562 13.09375 -16.257812 13.65625 -15.65625 C 14.21875 -15.0625 14.648438 -14.351562 14.953125 -13.53125 C 15.253906 -12.707031 15.40625 -11.804688 15.40625 -10.828125 L 15.40625 0 L 13.296875 0 C 12.867188 0 12.539062 -0.0625 12.3125 -0.1875 C 12.082031 -0.3125 11.894531 -0.566406 11.75 -0.953125 L 11.375 -2.0625 C 10.945312 -1.675781 10.53125 -1.335938 10.125 -1.046875 C 9.71875 -0.765625 9.296875 -0.523438 8.859375 -0.328125 C 8.421875 -0.128906 7.953125 0.015625 7.453125 0.109375 C 6.960938 0.210938 6.410156 0.265625 5.796875 0.265625 C 5.035156 0.265625 4.34375 0.164062 3.71875 -0.03125 C 3.101562 -0.226562 2.566406 -0.523438 2.109375 -0.921875 C 1.660156 -1.316406 1.3125 -1.8125 1.0625 -2.40625 C 0.820312 -3 0.703125 -3.675781 0.703125 -4.4375 C 0.703125 -5.070312 0.863281 -5.707031 1.1875 -6.34375 C 1.507812 -6.976562 2.0625 -7.554688 2.84375 -8.078125 C 3.632812 -8.597656 4.679688 -9.023438 5.984375 -9.359375 C 7.296875 -9.703125 8.9375 -9.894531 10.90625 -9.9375 L 10.90625 -10.828125 C 10.90625 -11.910156 10.675781 -12.703125 10.21875 -13.203125 C 9.769531 -13.710938 9.113281 -13.96875 8.25 -13.96875 C 7.613281 -13.96875 7.082031 -13.890625 6.65625 -13.734375 C 6.238281 -13.585938 5.867188 -13.425781 5.546875 -13.25 C 5.234375 -13.082031 4.9375 -12.921875 4.65625 -12.765625 C 4.382812 -12.617188 4.0625 -12.546875 3.6875 -12.546875 C 3.363281 -12.546875 3.09375 -12.625 2.875 -12.78125 C 2.664062 -12.945312 2.488281 -13.144531 2.34375 -13.375 Z M 1.515625 -14.84375 "/></g></g></g><g fill="#ffffff" fill-opacity="1"><g transform="translate(131.698254, 34.499998)"><g><path d="M 6.515625 -4.546875 C 6.953125 -4.046875 7.421875 -3.691406 7.921875 -3.484375 C 8.429688 -3.285156 8.960938 -3.1875 9.515625 -3.1875 C 10.078125 -3.1875 10.585938 -3.289062 11.046875 -3.5 C 11.515625 -3.707031 11.914062 -4.035156 12.25 -4.484375 C 12.582031 -4.929688 12.835938 -5.519531 13.015625 -6.25 C 13.191406 -6.976562 13.28125 -7.851562 13.28125 -8.875 C 13.28125 -9.789062 13.207031 -10.566406 13.0625 -11.203125 C 12.914062 -11.847656 12.703125 -12.375 12.421875 -12.78125 C 12.140625 -13.195312 11.789062 -13.5 11.375 -13.6875 C 10.96875 -13.875 10.488281 -13.96875 9.9375 -13.96875 C 9.21875 -13.96875 8.59375 -13.804688 8.0625 -13.484375 C 7.53125 -13.171875 7.015625 -12.707031 6.515625 -12.09375 Z M 6.515625 -15.234375 C 7.191406 -15.921875 7.941406 -16.46875 8.765625 -16.875 C 9.597656 -17.289062 10.523438 -17.5 11.546875 -17.5 C 12.535156 -17.5 13.425781 -17.300781 14.21875 -16.90625 C 15.019531 -16.507812 15.703125 -15.941406 16.265625 -15.203125 C 16.828125 -14.472656 17.257812 -13.585938 17.5625 -12.546875 C 17.875 -11.503906 18.03125 -10.335938 18.03125 -9.046875 C 18.03125 -7.648438 17.851562 -6.378906 17.5 -5.234375 C 17.15625 -4.097656 16.660156 -3.125 16.015625 -2.3125 C 15.367188 -1.5 14.59375 -0.867188 13.6875 -0.421875 C 12.789062 0.0234375 11.789062 0.25 10.6875 0.25 C 10.15625 0.25 9.675781 0.195312 9.25 0.09375 C 8.832031 -0.0078125 8.441406 -0.15625 8.078125 -0.34375 C 7.722656 -0.539062 7.394531 -0.769531 7.09375 -1.03125 C 6.800781 -1.289062 6.519531 -1.582031 6.25 -1.90625 L 6.0625 -0.875 C 5.988281 -0.550781 5.863281 -0.320312 5.6875 -0.1875 C 5.507812 -0.0625 5.269531 0 4.96875 0 L 1.90625 0 L 1.90625 -24.921875 L 6.515625 -24.921875 Z M 6.515625 -15.234375 "/></g></g></g><g fill="#fc5130" fill-opacity="1"><g transform="translate(150.801336, 35.21489)"><g><path d="M 0.828125 -1.609375 C 0.828125 -1.847656 0.875 -2.078125 0.96875 -2.296875 C 1.0625 -2.515625 1.1875 -2.703125 1.34375 -2.859375 C 1.507812 -3.015625 1.703125 -3.140625 1.921875 -3.234375 C 2.140625 -3.328125 2.378906 -3.375 2.640625 -3.375 C 2.890625 -3.375 3.125 -3.328125 3.34375 -3.234375 C 3.5625 -3.140625 3.75 -3.015625 3.90625 -2.859375 C 4.070312 -2.703125 4.203125 -2.515625 4.296875 -2.296875 C 4.390625 -2.078125 4.4375 -1.847656 4.4375 -1.609375 C 4.4375 -1.359375 4.390625 -1.125 4.296875 -0.90625 C 4.203125 -0.695312 4.070312 -0.507812 3.90625 -0.34375 C 3.75 -0.1875 3.5625 -0.0664062 3.34375 0.015625 C 3.125 0.109375 2.890625 0.15625 2.640625 0.15625 C 2.378906 0.15625 2.140625 0.109375 1.921875 0.015625 C 1.703125 -0.0664062 1.507812 -0.1875 1.34375 -0.34375 C 1.1875 -0.507812 1.0625 -0.695312 0.96875 -0.90625 C 0.875 -1.125 0.828125 -1.359375 0.828125 -1.609375 Z M 0.828125 -1.609375 "/></g></g></g><g fill="#fc5130" fill-opacity="1"><g transform="translate(156.069898, 35.21489)"><g><path d="M 4.09375 -10.078125 C 4.320312 -10.304688 4.5625 -10.507812 4.8125 -10.6875 C 5.0625 -10.875 5.320312 -11.035156 5.59375 -11.171875 C 5.875 -11.304688 6.171875 -11.410156 6.484375 -11.484375 C 6.804688 -11.554688 7.15625 -11.59375 7.53125 -11.59375 C 8.15625 -11.59375 8.707031 -11.484375 9.1875 -11.265625 C 9.664062 -11.054688 10.066406 -10.757812 10.390625 -10.375 C 10.722656 -9.988281 10.972656 -9.53125 11.140625 -9 C 11.304688 -8.46875 11.390625 -7.882812 11.390625 -7.25 L 11.390625 0 L 8.34375 0 L 8.34375 -7.25 C 8.34375 -7.882812 8.195312 -8.375 7.90625 -8.71875 C 7.613281 -9.070312 7.175781 -9.25 6.59375 -9.25 C 6.164062 -9.25 5.765625 -9.15625 5.390625 -8.96875 C 5.015625 -8.789062 4.65625 -8.535156 4.3125 -8.203125 L 4.3125 0 L 1.265625 0 L 1.265625 -11.40625 L 3.140625 -11.40625 C 3.523438 -11.40625 3.78125 -11.226562 3.90625 -10.875 Z M 4.09375 -10.078125 "/></g></g></g><g fill="#fc5130" fill-opacity="1"><g transform="translate(168.621468, 35.21489)"><g><path d="M 4.34375 -16.5 L 4.34375 0 L 1.28125 0 L 1.28125 -16.5 Z M 4.34375 -16.5 "/></g></g></g></svg>